<?xml version="1.0" encoding="utf-8"?>
<!-- Generator: Adobe Illustrator 15.1.0, SVG Export Plug-In . SVG Version: 6.00 Build 0)  -->
<!DOCTYPE svg PUBLIC "-//W3C//DTD SVG 1.1//EN" "http://www.w3.org/Graphics/SVG/1.1/DTD/svg11.dtd">
<svg version="1.1" id="Layer_1" xmlns="http://www.w3.org/2000/svg" xmlns:xlink="http://www.w3.org/1999/xlink" x="0px" y="0px"
	 width="193px" height="60px" viewBox="0 0 193 60" enable-background="new 0 0 193 60" xml:space="preserve">
<g>
	<g>
		<g>
			<path d="M77.543,2.585h5.962l8.916,25.207h-5.709l-1.665-5.184h-9.283l-1.713,5.184h-5.509L77.543,2.585z M77.199,18.268h6.454
				l-3.185-9.923L77.199,18.268z"/>
			<path d="M109.756,10.217c1.219,1.011,1.833,2.686,1.833,5.021v12.554h-4.996V16.454c0-0.98-0.133-1.733-0.393-2.259
				c-0.472-0.959-1.38-1.436-2.717-1.436c-1.64,0-2.767,0.698-3.376,2.103c-0.315,0.742-0.478,1.689-0.478,2.839v10.091h-4.875
				V9.185h4.723v2.719c0.621-0.956,1.214-1.646,1.771-2.068c0.997-0.753,2.267-1.13,3.798-1.13
				C106.962,8.705,108.535,9.21,109.756,10.217z"/>
			<path d="M125.489,9.451c0.878,0.495,1.593,1.181,2.138,2.059V2.617h4.945v25.175h-4.741v-2.583
				c-0.696,1.108-1.486,1.91-2.372,2.412c-0.892,0.503-1.997,0.755-3.319,0.755c-2.181,0-4.013-0.883-5.502-2.644
				c-1.488-1.761-2.232-4.023-2.232-6.782c0-3.184,0.734-5.685,2.197-7.508c1.466-1.823,3.427-2.737,5.879-2.737
				C123.608,8.705,124.613,8.953,125.489,9.451z M126.689,22.73c0.718-1.027,1.078-2.354,1.078-3.986c0-2.276-0.58-3.91-1.731-4.891
				c-0.707-0.594-1.524-0.891-2.462-0.891c-1.423,0-2.47,0.541-3.139,1.619s-1,2.409-1,4.011c0,1.724,0.34,3.097,1.018,4.129
				c0.674,1.033,1.704,1.55,3.088,1.55C124.921,24.271,125.969,23.755,126.689,22.73z"/>
			<path d="M148.808,9.527c1.298,0.581,2.371,1.501,3.219,2.757c0.764,1.111,1.26,2.394,1.485,3.854
				c0.133,0.858,0.188,2.092,0.162,3.701h-13.578c0.076,1.869,0.727,3.183,1.949,3.931c0.745,0.472,1.641,0.705,2.689,0.705
				c1.108,0,2.014-0.284,2.708-0.856c0.378-0.307,0.709-0.737,0.999-1.282h4.978c-0.133,1.108-0.733,2.23-1.807,3.368
				c-1.667,1.815-4.011,2.723-7.01,2.723c-2.482,0-4.672-0.766-6.571-2.297c-1.896-1.528-2.844-4.016-2.844-7.462
				c0-3.23,0.854-5.709,2.565-7.43c1.713-1.723,3.934-2.583,6.67-2.583C146.044,8.656,147.505,8.947,148.808,9.527z M141.513,13.74
				c-0.69,0.709-1.119,1.671-1.297,2.886h8.396c-0.086-1.296-0.52-2.278-1.298-2.948c-0.777-0.67-1.74-1.005-2.892-1.005
				C143.174,12.673,142.202,13.03,141.513,13.74z"/>
			<path d="M164.035,16.454c0.908-0.116,1.56-0.257,1.95-0.43c0.697-0.296,1.052-0.757,1.052-1.385c0-0.762-0.273-1.292-0.811-1.58
				c-0.534-0.29-1.321-0.436-2.36-0.436c-1.168,0-1.997,0.284-2.483,0.853c-0.345,0.421-0.58,0.994-0.689,1.711h-4.706
				c0.103-1.63,0.562-2.97,1.371-4.02c1.298-1.641,3.522-2.463,6.668-2.463c2.049,0,3.87,0.407,5.465,1.218
				c1.585,0.807,2.38,2.337,2.38,4.584v8.549c0,0.594,0.017,1.314,0.04,2.153c0.03,0.641,0.128,1.075,0.288,1.301
				c0.157,0.23,0.403,0.415,0.718,0.566v0.716h-5.298c-0.148-0.374-0.254-0.729-0.309-1.06c-0.062-0.328-0.104-0.708-0.136-1.127
				c-0.68,0.729-1.457,1.35-2.344,1.863c-1.052,0.603-2.249,0.907-3.576,0.907c-1.699,0-3.1-0.483-4.207-1.451
				c-1.106-0.959-1.662-2.327-1.662-4.094c0-2.29,0.892-3.948,2.675-4.973c0.971-0.561,2.411-0.96,4.303-1.2L164.035,16.454z
				 M167.019,18.726c-0.314,0.195-0.629,0.354-0.948,0.474c-0.315,0.119-0.751,0.229-1.309,0.331l-1.106,0.205
				c-1.041,0.186-1.786,0.407-2.243,0.668c-0.767,0.443-1.149,1.135-1.149,2.071c0,0.832,0.233,1.435,0.702,1.805
				c0.47,0.369,1.038,0.553,1.712,0.553c1.065,0,2.049-0.305,2.943-0.918c0.899-0.618,1.36-1.744,1.398-3.373V18.726z"/>
			<path d="M191.166,10.217c1.222,1.011,1.834,2.686,1.834,5.021v12.554h-4.996V16.454c0-0.98-0.128-1.733-0.388-2.259
				c-0.478-0.959-1.383-1.436-2.716-1.436c-1.644,0-2.773,0.698-3.382,2.103c-0.316,0.742-0.473,1.689-0.473,2.839v10.091h-4.875
				V9.185h4.718v2.719c0.625-0.956,1.213-1.646,1.771-2.068c1-0.753,2.265-1.13,3.799-1.13
				C188.38,8.705,189.951,9.21,191.166,10.217z"/>
		</g>
		<g>
			<path d="M69.879,39.326h2.791v3.024c0.231-0.589,0.796-1.307,1.688-2.151c0.897-0.844,1.921-1.267,3.091-1.267
				c0.052,0,0.15,0.004,0.283,0.015c0.129,0.013,0.348,0.032,0.666,0.065v3.107c-0.174-0.032-0.334-0.055-0.486-0.065
				c-0.146-0.008-0.304-0.016-0.481-0.016c-1.481,0-2.62,0.476-3.416,1.433c-0.795,0.953-1.192,2.052-1.192,3.295v10.074h-2.944
				V39.326z"/>
			<path d="M93.643,41.073c1.547,1.504,2.322,3.715,2.322,6.634c0,2.823-0.683,5.155-2.046,6.996
				c-1.366,1.84-3.482,2.761-6.352,2.761c-2.393,0-4.291-0.815-5.7-2.444c-1.407-1.629-2.109-3.812-2.109-6.56
				c0-2.944,0.74-5.286,2.224-7.028c1.482-1.744,3.472-2.612,5.973-2.612C90.2,38.819,92.096,39.569,93.643,41.073z M91.813,52.717
				c0.719-1.478,1.077-3.119,1.077-4.931c0-1.63-0.259-2.962-0.776-3.984c-0.821-1.609-2.232-2.416-4.237-2.416
				c-1.777,0-3.074,0.685-3.882,2.057c-0.809,1.374-1.216,3.029-1.216,4.967c0,1.863,0.408,3.416,1.216,4.656
				c0.809,1.242,2.09,1.86,3.851,1.86C89.773,54.926,91.098,54.188,91.813,52.717z"/>
			<path d="M108.965,46.24c0.679-0.086,1.135-0.37,1.362-0.85c0.13-0.263,0.195-0.641,0.195-1.133c0-1.006-0.36-1.736-1.068-2.192
				c-0.715-0.453-1.731-0.68-3.06-0.68c-1.536,0-2.63,0.415-3.268,1.249c-0.356,0.458-0.596,1.144-0.701,2.054h-2.747
				c0.052-2.164,0.755-3.669,2.095-4.518c1.349-0.851,2.91-1.272,4.685-1.272c2.059,0,3.729,0.391,5.019,1.179
				c1.267,0.783,1.907,2.008,1.907,3.663v10.093c0,0.304,0.062,0.551,0.188,0.736c0.125,0.185,0.391,0.276,0.792,0.276
				c0.133,0,0.278-0.007,0.441-0.023c0.166-0.019,0.337-0.041,0.526-0.073v2.176c-0.458,0.133-0.806,0.211-1.049,0.246
				c-0.239,0.03-0.563,0.046-0.98,0.046c-1.012,0-1.751-0.359-2.209-1.078c-0.238-0.38-0.411-0.922-0.507-1.617
				c-0.599,0.783-1.458,1.463-2.587,2.045c-1.12,0.575-2.357,0.865-3.707,0.865c-1.625,0-2.951-0.494-3.982-1.478
				c-1.036-0.985-1.548-2.221-1.548-3.703c0-1.62,0.504-2.877,1.517-3.77c1.017-0.896,2.347-1.447,3.995-1.655L108.965,46.24z
				 M102.771,54.193c0.62,0.487,1.354,0.732,2.207,0.732c1.036,0,2.039-0.233,3.008-0.716c1.637-0.794,2.452-2.093,2.452-3.904
				v-2.369c-0.354,0.233-0.82,0.421-1.384,0.577c-0.567,0.154-1.124,0.263-1.667,0.326l-1.777,0.232
				c-1.069,0.141-1.872,0.36-2.403,0.669c-0.915,0.51-1.37,1.325-1.37,2.444C101.836,53.036,102.145,53.703,102.771,54.193z"/>
			<path d="M127.831,39.862c0.522,0.329,1.116,0.902,1.777,1.718v-8.846h2.83v24.106h-2.649v-2.434
				c-0.683,1.078-1.493,1.858-2.425,2.336c-0.938,0.481-2.01,0.721-3.214,0.721c-1.941,0-3.63-0.82-5.05-2.46
				c-1.426-1.643-2.138-3.828-2.138-6.552c0-2.553,0.653-4.764,1.955-6.633c1.298-1.869,3.148-2.807,5.558-2.807
				C125.812,39.013,126.936,39.297,127.831,39.862z M121.258,52.996c0.796,1.268,2.063,1.899,3.816,1.899
				c1.353,0,2.467-0.586,3.341-1.756c0.876-1.173,1.31-2.855,1.31-5.048c0-2.216-0.449-3.85-1.35-4.915
				c-0.899-1.065-2.014-1.597-3.338-1.597c-1.475,0-2.67,0.566-3.585,1.704c-0.919,1.134-1.377,2.803-1.377,5.005
				C120.075,50.164,120.469,51.735,121.258,52.996z"/>
			<path d="M138.593,51.348c0.084,0.979,0.335,1.731,0.747,2.255c0.759,0.949,2.065,1.425,3.943,1.425
				c1.108,0,2.094-0.24,2.934-0.714c0.851-0.475,1.271-1.206,1.271-2.195c0-0.753-0.337-1.328-1.014-1.719
				c-0.437-0.241-1.289-0.518-2.563-0.836l-2.371-0.589c-1.524-0.374-2.642-0.786-3.361-1.241c-1.288-0.797-1.931-1.901-1.931-3.306
				c0-1.655,0.608-3.001,1.816-4.023c1.209-1.024,2.84-1.539,4.883-1.539c2.672,0,4.608,0.775,5.787,2.32
				c0.737,0.983,1.097,2.042,1.076,3.18h-2.783c-0.054-0.666-0.293-1.268-0.718-1.81c-0.69-0.77-1.894-1.154-3.604-1.154
				c-1.133,0-1.994,0.211-2.586,0.638c-0.584,0.423-0.878,0.98-0.878,1.675c0,0.764,0.389,1.37,1.157,1.826
				c0.442,0.275,1.098,0.515,1.965,0.72l1.983,0.474c2.157,0.513,3.602,1.009,4.335,1.491c1.142,0.75,1.718,1.934,1.718,3.547
				c0,1.558-0.601,2.907-1.794,4.039c-1.203,1.134-3.026,1.702-5.479,1.702c-2.639,0-4.503-0.589-5.605-1.777
				c-1.095-1.182-1.688-2.647-1.764-4.388H138.593z"/>
		</g>
	</g>
	<g>
		<polygon fill="#693300" points="23.655,56.864 56.627,56.864 56.627,47.266 30.781,47.266 		"/>
		<polygon fill="#693300" points="56.627,29.385 46.195,43.84 56.627,43.84 		"/>
		<polygon fill="#A07250" points="2.858,56.864 19.829,56.864 28.025,46.411 28.502,45.932 28.502,45.269 28.88,44.41 
			29.451,44.225 30.211,44.032 32.591,44.032 41.819,44.032 50.094,32.522 20.415,32.522 		"/>
		<polygon fill="#A07250" points="51.597,30.428 56.627,23.432 56.627,2.846 50.51,2.846 30.689,30.428 		"/>
		<polygon fill="#0088CF" points="2.858,2.846 2.858,53.45 18.725,31.609 18.689,31.571 18.882,30.998 18.882,30.521 19.653,30.333 
			28.31,30.333 48.025,2.846 		"/>
		<path d="M0,0.238v59.48h56.378h2.927h0.182v-0.497V0.238H0z M56.627,29.385V43.84H46.195L56.627,29.385z M56.627,23.432
			l-5.031,6.996H30.689L50.51,2.846h6.117V23.432z M18.725,31.609L2.858,53.45V2.846h45.167L28.31,30.333h-8.657l-0.771,0.188v0.478
			l-0.192,0.573L18.725,31.609z M2.858,56.864l17.557-24.342h29.68l-8.275,11.51h-9.229h-2.38l-0.76,0.192L28.88,44.41l-0.377,0.858
			v0.663l-0.477,0.479l-8.196,10.453H2.858z M30.781,47.266h25.846v9.599H23.655L30.781,47.266z"/>
	</g>
</g>
</svg>
